<svg  viewBox="0 0 24 24" fill="none" xmlns="http://www.w3.org/2000/svg">
<g id="Icon">
<path id="Vector" d="M16.9714 14.44C18.3414 14.67 19.8514 14.43 20.9114 13.72C22.3214 12.78 22.3214 11.24 20.9114 10.3C19.8414 9.59 18.3114 9.35 16.9414 9.59M7.00141 14.44C5.63141 14.67 4.12141 14.43 3.06141 13.72C1.65141 12.78 1.65141 11.24 3.06141 10.3C4.13141 9.59 5.66141 9.35 7.03141 9.59M18.0014 7.16C17.9385 7.14999 17.8743 7.14999 17.8114 7.16C17.144 7.13587 16.5122 6.85321 16.0494 6.37176C15.5866 5.89032 15.3292 5.2478 15.3314 4.58C15.3314 3.15 16.4814 2 17.9114 2C18.5957 2 19.2519 2.27182 19.7357 2.75566C20.2196 3.23951 20.4914 3.89574 20.4914 4.58C20.4896 5.24827 20.2294 5.88996 19.7653 6.37081C19.3012 6.85167 18.6692 7.13445 18.0014 7.16ZM5.97141 7.16C6.03141 7.15 6.10141 7.15 6.16141 7.16C6.82877 7.13587 7.46061 6.85321 7.9234 6.37176C8.38619 5.89032 8.64366 5.2478 8.64141 4.58C8.64141 3.15 7.49141 2 6.06141 2C5.37715 2 4.72091 2.27182 4.23707 2.75566C3.75323 3.23951 3.48141 3.89574 3.48141 4.58C3.49141 5.98 4.59141 7.11 5.97141 7.16ZM12.0014 14.63C11.9385 14.62 11.8743 14.62 11.8114 14.63C11.144 14.6059 10.5122 14.3232 10.0494 13.8418C9.58663 13.3603 9.32915 12.7178 9.33141 12.05C9.33141 10.62 10.4814 9.47 11.9114 9.47C12.5957 9.47 13.2519 9.74182 13.7357 10.2257C14.2196 10.7095 14.4914 11.3657 14.4914 12.05C14.4814 13.45 13.3814 14.59 12.0014 14.63ZM9.09141 17.78C7.68141 18.72 7.68141 20.26 9.09141 21.2C10.6914 22.27 13.3114 22.27 14.9114 21.2C16.3214 20.26 16.3214 18.72 14.9114 17.78C13.3214 16.72 10.6914 16.72 9.09141 17.78Z" />
</g>
</svg>
